<?xml version="1.0" encoding="UTF-8" standalone="no"?>
<!DOCTYPE svg PUBLIC "-//W3C//DTD SVG 1.1//EN" "http://www.w3.org/Graphics/SVG/1.1/DTD/svg11.dtd">
<svg width="100%" height="100%" viewBox="0 0 1367 900" version="1.1" xmlns="http://www.w3.org/2000/svg" xmlns:xlink="http://www.w3.org/1999/xlink" xml:space="preserve" xmlns:serif="http://www.serif.com/" style="fill-rule:evenodd;clip-rule:evenodd;stroke-linejoin:round;stroke-miterlimit:2;">
    <g transform="matrix(0.1,0,0,-0.1,0,1030)">
        <path d="M4832,7158L4835,4915L5383,4912L5930,4910L5930,6946L6006,7020L6275,7020L6460,6757C6561,6613 6753,6340 6886,6150C7020,5960 7270,5605 7442,5360L7755,4915L8303,4912L8850,4910L8850,9400L7655,9400L6800,8545C6330,8075 5942,7690 5938,7690C5933,7690 5930,8075 5930,8545L5930,9400L4830,9400L4832,7158ZM8258,8332L8260,7560L7428,7562C6862,7564 6595,7568 6595,7575C6595,7586 6663,7653 7385,8350C7621,8578 7895,8843 7993,8938C8171,9111 8172,9111 8213,9108L8255,9105L8258,8332ZM8260,6164C8260,5330 8260,5308 8242,5331C8231,5344 7997,5663 7720,6040C7443,6417 7184,6768 7145,6820C7106,6872 7057,6939 7036,6968L6998,7020L8260,7020L8260,6164Z" style="fill-rule:nonzero;"/>
        <path d="M3810,4451L3810,3180L4090,3180L4092,3588L4095,3995L4485,3733C5138,3294 5405,3115 5413,3112C5417,3110 5420,3392 5420,3739L5420,4370L5140,4370L5140,3965C5140,3742 5138,3560 5135,3560C5130,3560 4644,3886 4023,4307L3810,4451Z" style="fill-rule:nonzero;"/>
        <path d="M11840,4451L11840,3180L12120,3180L12120,3982C12120,3995 12183,3957 12348,3846C12951,3440 13443,3110 13446,3110C13448,3110 13450,3394 13450,3740L13450,4370L13170,4370L13170,3965C13170,3742 13167,3560 13164,3560C13161,3560 13048,3635 12912,3727C12776,3818 12577,3953 12470,4025C12363,4097 12177,4223 12058,4304L11840,4451Z" style="fill-rule:nonzero;"/>
        <path d="M2667,4394C2647,4367 2445,4086 2216,3770C1987,3454 1800,3192 1800,3188C1800,3183 1867,3180 1950,3180L2100,3180L2197,3319L2295,3459L2690,3459L3085,3460L3179,3320L3274,3180L3427,3180C3511,3180 3580,3182 3580,3185C3580,3190 2723,4421 2710,4434C2705,4438 2686,4421 2667,4394ZM2826,3843C2892,3745 2949,3661 2952,3655C2956,3648 2867,3645 2694,3645C2549,3645 2430,3646 2430,3648C2430,3656 2693,4020 2699,4020C2703,4020 2760,3940 2826,3843Z" style="fill-rule:nonzero;"/>
        <path d="M230,4370L230,3180L511,3180L510,3438L510,3713C510,3729 535,3730 900,3730L1290,3730L1290,3180L1570,3180L1570,4370L1290,4370L1290,3910L505,3910L511,4370L230,4370Z" style="fill-rule:nonzero;"/>
        <path d="M5850,4372L5850,3178L6198,3183C6583,3189 6641,3196 6806,3255C6981,3317 7137,3430 7202,3540C7264,3646 7279,3797 7240,3922C7177,4127 6943,4284 6612,4346C6547,4358 6439,4364 6188,4367L5850,4372ZM6436,4179C6634,4157 6768,4107 6864,4019C7021,3875 7021,3671 6862,3530C6729,3411 6546,3360 6253,3360L6130,3360L6130,4190L6235,4190C6293,4190 6384,4185 6436,4179Z" style="fill-rule:nonzero;"/>
        <path d="M7620,4370L7620,3180L7900,3180L7900,4370L7620,4370Z" style="fill-rule:nonzero;"/>
        <path d="M8860,4370L8860,3180L9140,3180L9140,3668L9166,3685C9190,3701 9193,3700 9223,3677C9241,3663 9388,3546 9550,3416L9845,3181L10033,3180C10136,3180 10220,3183 10219,3188C10219,3192 10035,3337 9811,3510C9508,3744 9405,3828 9414,3836C9420,3842 9602,3961 9818,4100C10033,4239 10210,4356 10210,4361C10210,4366 10128,4370 10028,4370L9845,4370L9496,4139C9305,4013 9146,3911 9143,3914C9140,3916 9139,4020 9139,4144L9141,4370L8860,4370Z" style="fill-rule:nonzero;"/>
        <path d="M10470,4370L10470,3180L11480,3180L11480,3360L10750,3360L10750,3740L11460,3740L11460,3920L10750,3920L10750,4190L11480,4190L11480,4370L10470,4370Z" style="fill-rule:nonzero;"/>
        <path d="M8110,3640L8110,3480L8640,3480L8640,3640L8110,3640Z" style="fill-rule:nonzero;"/>
        <path d="M3450,2595C3300,2569 3200,2512 3181,2443C3145,2313 3294,2217 3555,2203C3847,2187 4066,2309 4005,2453C3956,2569 3691,2637 3450,2595ZM3705,2565C3802,2541 3860,2481 3860,2405C3860,2341 3826,2296 3751,2262C3702,2239 3682,2236 3595,2236C3508,2236 3488,2239 3439,2262C3364,2296 3330,2341 3330,2405C3330,2486 3385,2539 3495,2566C3547,2578 3652,2577 3705,2565Z" style="fill-rule:nonzero;"/>
        <path d="M6294,2600C6194,2580 6146,2541 6157,2487C6165,2447 6223,2417 6380,2375C6563,2326 6604,2294 6530,2258C6506,2245 6471,2240 6419,2240C6334,2240 6290,2252 6243,2286C6210,2311 6175,2316 6150,2300C6138,2293 6138,2288 6154,2272C6230,2187 6543,2174 6651,2251C6685,2275 6696,2309 6681,2339C6664,2371 6604,2397 6450,2439C6257,2492 6227,2515 6301,2552C6368,2587 6505,2571 6570,2522C6614,2488 6663,2489 6658,2523C6649,2585 6442,2629 6294,2600Z" style="fill-rule:nonzero;"/>
        <path d="M9615,2595C9430,2561 9330,2485 9343,2387C9359,2270 9554,2191 9799,2203C9863,2206 9937,2216 9963,2224C10018,2242 10110,2290 10110,2301C10110,2305 10097,2313 10081,2318C10059,2326 10049,2325 10040,2316C10035,2308 10002,2290 9967,2274C9911,2248 9894,2245 9800,2245C9670,2245 9600,2265 9541,2317C9509,2346 9498,2363 9498,2387C9495,2497 9606,2562 9800,2563C9889,2564 9913,2561 9955,2542C9982,2529 10014,2510 10026,2499C10042,2484 10055,2481 10074,2486C10115,2496 10102,2521 10040,2552C9930,2606 9763,2623 9615,2595Z" style="fill-rule:nonzero;"/>
        <path d="M11083,2599C10992,2582 10950,2547 10950,2490C10950,2454 11011,2423 11166,2378C11338,2328 11376,2309 11360,2281C11346,2254 11297,2240 11216,2240C11131,2240 11085,2252 11036,2285C10997,2312 10956,2318 10944,2298C10933,2281 10992,2233 11042,2218C11098,2201 11321,2201 11377,2218C11436,2236 11480,2275 11480,2310C11480,2361 11433,2389 11280,2429C11089,2479 11044,2500 11060,2531C11086,2579 11266,2582 11345,2535C11370,2521 11390,2505 11390,2499C11390,2489 11440,2498 11454,2511C11471,2526 11419,2569 11366,2586C11308,2604 11146,2612 11083,2599Z" style="fill-rule:nonzero;"/>
        <path d="M2360,2600L2360,2210L2490,2210L2490,2390L2870,2390L2870,2210L3000,2210L3000,2600L2870,2600L2870,2430L2490,2430L2490,2600L2360,2600Z" style="fill-rule:nonzero;"/>
        <path d="M4190,2600L4190,2210L4249,2210L4252,2363L4255,2515L4411,2363C4497,2279 4574,2210 4583,2210C4592,2210 4669,2278 4755,2361L4910,2512L4910,2210L5040,2210L5040,2600L4915,2600L4620,2305L4325,2600L4190,2600Z" style="fill-rule:nonzero;"/>
        <path d="M5250,2600L5250,2210L5515,2210C5775,2210 5780,2210 5780,2230C5780,2250 5775,2251 5593,2250C5489,2250 5399,2249 5393,2250C5384,2250 5380,2272 5380,2325L5380,2400L5515,2400C5643,2400 5650,2401 5650,2420C5650,2439 5643,2440 5515,2440L5380,2440L5380,2560L5580,2560C5773,2560 5780,2561 5780,2580C5780,2599 5773,2600 5515,2600L5250,2600Z" style="fill-rule:nonzero;"/>
        <path d="M6860,2600L6860,2210L7125,2210C7385,2210 7390,2210 7390,2230C7390,2250 7386,2251 7190,2248L6990,2245L6990,2400L7125,2400C7253,2400 7260,2401 7260,2420C7260,2439 7253,2440 7125,2440L6990,2440L6990,2560L7190,2560C7383,2560 7390,2561 7390,2580C7390,2599 7383,2600 7125,2600L6860,2600Z" style="fill-rule:nonzero;"/>
        <path d="M7540,2600L7540,2210L7680,2210L7680,2380L7725,2380C7765,2380 7785,2370 7898,2295L8025,2210L8097,2210C8137,2210 8170,2214 8170,2219C8170,2223 8116,2263 8050,2306C7984,2349 7930,2387 7930,2391C7930,2395 7948,2401 7970,2405C8017,2413 8070,2447 8081,2476C8085,2488 8083,2507 8077,2521C8047,2580 7953,2600 7708,2600L7540,2600ZM7890,2544C7941,2523 7954,2486 7921,2459C7888,2432 7835,2420 7753,2420L7680,2420L7680,2560L7765,2560C7819,2560 7864,2554 7890,2544Z" style="fill-rule:nonzero;"/>
        <path d="M8180,2592C8180,2576 8546,2205 8566,2202C8581,2200 8626,2244 8756,2389C8849,2494 8926,2584 8928,2590C8930,2595 8917,2600 8898,2599C8868,2599 8853,2585 8735,2449L8605,2300L8315,2600L8248,2600C8210,2600 8180,2597 8180,2592Z" style="fill-rule:nonzero;"/>
        <path d="M9030,2600L9030,2210L9170,2210L9170,2600L9030,2600Z" style="fill-rule:nonzero;"/>
        <path d="M10286,2584C10283,2575 10280,2488 10280,2389L10280,2210L10551,2210C10803,2210 10821,2211 10818,2228C10815,2243 10796,2245 10617,2248L10420,2250L10420,2400L10549,2400C10657,2400 10679,2403 10684,2416C10687,2425 10690,2434 10690,2436C10690,2438 10630,2440 10556,2440C10482,2440 10419,2443 10417,2448C10415,2452 10415,2479 10418,2508L10422,2560L10621,2560C10813,2560 10820,2561 10820,2580C10820,2599 10813,2600 10556,2600C10325,2600 10291,2598 10286,2584Z" style="fill-rule:nonzero;"/>
    </g>
</svg>
